# xmcd CD database file
#
# Track frame offsets:
#	150
#	803
#	6240
#	22082
#	27842
#	64495
#	87176
#	107499
#	146744
#	168233
#	193524
#	202198
#	211880
#	218234
#	227097
#	262278
#	275973
#	303432
#	308114
#	313750
#	327937
#
# Disc length: 4430 seconds
#
# Revision: 1
# Processed by: cddbd v1.5.2PL0 Copyright (c) Steve Scherf et al.
# Submitted via: CDex 1.50
#
DISCID=34114c15
DTITLE=Jacques Thollot - Thollot In Extenso_Jacques Thollot Quartet_Jacques Thollot (batterie), Nathan Hanson (saxophone), Tony Hymas (piano) , Claude Tchamitchian (contrebasse) 
DYEAR=2017
DGENRE=Jazz
TTITLE0=Sunny Murray message
TTITLE1=Marie (J Thollot)
TTITLE2=Watch devil go (J Thollot)
TTITLE3=Epilogue (J Thollot)
TTITLE4=Tenga Nina ( (J Thollot))
TTITLE5=La dynastie des Wittelsbach (J Thollot)
TTITLE6=To Neneh by Don from Jacques (J Thollot)
TTITLE7=De DC par JT (Don Cherry)
TTITLE8=On a mountain (J Thollot, Micheline Pelzer)
TTITLE9=Quand le son devient aigu, jeter la giraphe a? la mer (J Thollot)
TTITLE10=Samedi a Vaucresson (J Thollot, Noël Akchoté)
TTITLE11=Up down (J Thollot)
TTITLE12=Don't tell him where we are (J Thollot)
TTITLE13=Go mind (J Thollot)
TTITLE14=Cinq Hops (J Thollot, Micheline Pelzer)
TTITLE15=Go mind (J Thollot, Micheline Pelzer)
TTITLE16=Seven (J Thollot, Micheline Pelzer)
TTITLE17=Un soir A Mainneville (J Thollot, Noël Akchoté)
TTITLE18=Heildelberg expectations  (J Thollot, Karl Berger)
TTITLE19=La Maison de Cellettes (J Thollot)
TTITLE20=Heildelberg expectations (J Thollot, Karl Berger)
EXTD=YEAR: 2017
EXTT0=
EXTT1=
EXTT2=
EXTT3=
EXTT4=
EXTT5=
EXTT6=
EXTT7=
EXTT8=
EXTT9=
EXTT10=
EXTT11=
EXTT12=
EXTT13=
EXTT14=
EXTT15=
EXTT16=
EXTT17=
EXTT18=
EXTT19=
EXTT20=
PLAYORDER=
